<?xml version="1.0" standalone="no"?>
<!DOCTYPE svg PUBLIC "-//W3C//DTD SVG 20010904//EN"
 "http://www.w3.org/TR/2001/REC-SVG-20010904/DTD/svg10.dtd">
<svg version="1.0" xmlns="http://www.w3.org/2000/svg"
 width="1024.000000pt" height="1024.000000pt" viewBox="0 0 1024.000000 1024.000000"
 preserveAspectRatio="xMidYMid meet">
<metadata>
Created by potrace 1.13, written by Peter Selinger 2001-2015
</metadata>
<g transform="translate(0.000000,1024.000000) scale(0.100000,-0.100000)"
fill="#000000" stroke="none">
<path d="M9860 10220 c0 -25 -62 -44 -234 -71 -70 -11 -153 -28 -183 -39 -30
-11 -110 -31 -177 -46 -66 -14 -148 -36 -181 -49 -33 -12 -98 -30 -145 -41
-47 -10 -112 -30 -145 -44 -33 -15 -89 -33 -125 -39 -36 -7 -96 -26 -135 -43
-38 -17 -97 -36 -130 -44 -33 -8 -90 -28 -126 -44 -36 -17 -100 -39 -142 -50
-42 -11 -91 -29 -109 -39 -18 -11 -67 -29 -108 -41 -41 -12 -93 -32 -115 -45
-22 -12 -69 -31 -105 -40 -36 -10 -87 -30 -115 -46 -27 -15 -77 -35 -110 -44
-33 -10 -82 -30 -110 -45 -27 -16 -72 -35 -100 -43 -27 -8 -81 -31 -120 -51
-38 -20 -77 -36 -86 -36 -9 0 -47 -16 -84 -36 -37 -20 -92 -44 -121 -54 -29
-10 -73 -30 -97 -44 -24 -14 -69 -35 -101 -46 -31 -10 -68 -28 -82 -39 -14
-11 -49 -27 -77 -37 -29 -9 -73 -29 -98 -45 -25 -16 -71 -38 -103 -49 -31 -10
-70 -29 -87 -40 -16 -12 -57 -32 -91 -46 -34 -13 -69 -31 -78 -39 -9 -8 -45
-27 -81 -41 -35 -14 -78 -37 -96 -50 -17 -13 -54 -33 -83 -44 -29 -11 -66 -31
-83 -44 -18 -13 -52 -31 -77 -40 -25 -9 -63 -30 -85 -45 -22 -15 -60 -35 -84
-45 -25 -10 -59 -27 -75 -39 -17 -12 -58 -36 -91 -53 -124 -64 -200 -106 -215
-119 -8 -7 -40 -25 -70 -40 -30 -15 -68 -37 -85 -50 -16 -12 -52 -32 -80 -44
-27 -12 -59 -30 -70 -40 -11 -11 -47 -33 -80 -50 -59 -32 -113 -64 -210 -127
-27 -17 -68 -41 -90 -52 -22 -11 -48 -29 -58 -40 -10 -11 -33 -26 -50 -33 -28
-12 -84 -46 -189 -116 -18 -13 -46 -31 -62 -40 -16 -10 -49 -33 -75 -50 -25
-18 -64 -42 -86 -54 -22 -12 -51 -32 -65 -44 -14 -13 -46 -36 -71 -52 -42 -26
-137 -90 -215 -146 -18 -12 -45 -30 -60 -40 -16 -9 -56 -37 -89 -62 -33 -24
-79 -57 -103 -72 -24 -15 -64 -45 -88 -66 -25 -20 -58 -44 -73 -51 -15 -8 -34
-22 -41 -31 -8 -10 -37 -32 -65 -51 -27 -19 -79 -56 -115 -84 -36 -27 -85 -64
-110 -81 -25 -18 -62 -46 -82 -63 -20 -17 -58 -48 -85 -68 -26 -21 -79 -62
-118 -93 -38 -30 -94 -74 -124 -98 -30 -23 -69 -55 -87 -72 -18 -16 -60 -52
-94 -80 -34 -27 -85 -70 -114 -95 -28 -25 -76 -65 -106 -90 -61 -50 -321 -281
-390 -345 -119 -111 -706 -701 -781 -784 -46 -51 -101 -112 -121 -135 -57 -62
-197 -226 -253 -296 -27 -34 -66 -81 -85 -104 -20 -22 -44 -54 -55 -71 -10
-16 -31 -46 -47 -65 -63 -77 -117 -149 -131 -176 -8 -16 -25 -38 -37 -49 -12
-11 -31 -37 -41 -57 -18 -36 -19 -67 -17 -783 l3 -745 50 35 c28 19 75 51 105
71 30 20 66 48 80 61 14 14 39 34 57 46 65 45 116 83 151 112 21 17 57 44 82
59 25 16 49 35 53 43 4 7 29 24 55 37 26 13 53 34 59 45 7 11 27 28 45 37 18
9 53 33 78 53 25 20 56 44 70 52 14 9 40 30 59 48 18 17 39 31 45 31 7 0 25
14 41 30 16 17 53 44 83 61 29 16 55 36 58 43 3 7 25 24 50 36 24 13 44 27 44
32 0 4 24 23 53 42 28 18 61 44 72 56 11 12 32 28 46 36 15 7 50 34 80 59 29
25 58 45 63 45 6 0 28 16 50 35 21 19 44 35 51 35 8 0 31 16 52 36 21 20 50
42 65 50 15 8 50 35 78 59 28 25 56 45 64 45 7 0 23 12 37 26 13 14 47 42 74
60 106 73 151 106 180 134 17 15 40 31 52 34 12 4 32 19 45 34 13 15 41 38 63
52 22 13 44 30 48 37 4 7 29 25 55 39 26 15 61 39 77 54 17 15 60 43 98 63 37
20 90 54 117 74 48 37 68 51 158 110 24 15 68 49 97 75 30 26 63 51 74 57 11
6 36 38 56 71 34 55 38 70 46 168 8 94 14 117 49 189 22 44 40 86 40 92 0 12
71 121 127 196 93 123 379 387 545 505 31 22 59 44 63 49 8 14 119 97 152 114
15 8 39 27 53 42 25 27 149 117 200 145 15 8 42 28 61 43 45 37 154 109 204
134 22 12 49 30 59 42 11 12 25 21 31 21 7 0 27 13 45 30 l32 30 -22 37 c-19
32 -23 57 -27 163 -2 71 0 140 6 160 6 19 16 61 22 93 11 62 39 101 67 95 20
-4 20 -20 0 -135 -12 -67 -12 -88 -2 -112 28 -66 114 -70 182 -8 l22 20 0 -45
c0 -36 -6 -51 -30 -76 -18 -19 -27 -38 -24 -47 3 -8 9 -15 13 -15 21 0 106 32
129 48 15 11 49 29 76 41 27 11 66 37 88 56 21 20 50 41 64 47 30 14 30 19 -1
50 -19 19 -24 33 -22 64 3 34 6 39 27 41 29 2 117 -22 135 -37 7 -6 34 -17 61
-25 47 -14 51 -14 114 14 36 16 117 46 180 66 103 35 126 39 225 40 129 1 201
21 257 71 20 18 46 38 59 44 21 12 77 54 179 135 45 37 67 52 172 124 57 38
75 52 171 131 27 22 52 40 57 40 5 0 32 19 59 43 57 48 111 88 185 135 28 18
58 41 66 51 8 10 26 24 40 31 14 7 43 28 65 47 56 48 188 143 198 143 5 0 25
16 44 35 19 19 39 35 44 35 4 0 31 20 59 45 28 24 63 51 78 59 15 8 36 24 47
36 11 12 38 31 60 42 22 12 56 35 76 52 58 49 110 90 163 126 27 18 57 41 66
50 9 9 36 28 59 40 22 13 41 27 41 31 0 4 17 18 38 30 20 13 57 39 82 59 25
20 61 47 82 59 20 12 39 28 42 36 3 8 28 26 56 40 27 14 50 29 50 34 0 5 32
31 70 58 39 26 91 62 116 80 25 17 58 43 73 57 15 14 32 26 38 26 6 0 24 14
41 31 27 28 57 50 210 154 28 19 52 40 52 44 0 5 19 19 43 31 23 12 58 36 78
54 33 29 89 72 163 123 66 47 109 79 149 114 23 19 66 50 95 68 28 18 52 37
52 42 0 5 22 20 49 34 27 13 56 33 63 43 7 10 31 30 53 44 22 14 46 32 53 41
7 8 26 20 42 27 30 12 30 13 30 96 l0 84 -185 0 c-177 0 -185 -1 -185 -20z
m-2426 -1720 c20 -7 26 -17 26 -39 0 -15 -7 -34 -15 -41 -8 -7 -25 -30 -37
-52 -13 -22 -35 -46 -50 -54 -21 -11 -32 -28 -44 -70 -18 -63 -40 -79 -63 -44
-39 56 -69 80 -103 80 -42 0 -78 10 -78 21 0 5 15 15 34 23 19 8 47 29 63 46
15 18 46 41 68 52 22 11 52 31 67 45 22 21 57 36 100 42 4 1 18 -3 32 -9z
m-650 -574 c14 -19 51 -46 82 -61 54 -25 63 -41 33 -55 -71 -33 -139 -93 -353
-307 -105 -106 -143 -137 -190 -157 -55 -24 -61 -25 -83 -11 -24 16 -30 53
-13 84 5 10 46 56 90 102 198 206 308 330 340 384 40 67 56 70 94 21z m-939
-302 c18 -8 36 -22 39 -29 3 -8 -6 -47 -20 -87 -15 -40 -29 -102 -33 -138 -4
-48 -10 -65 -21 -65 -11 0 -16 15 -18 62 -3 55 -6 65 -33 88 -22 18 -42 25
-72 25 -35 0 -46 -5 -69 -32 -21 -26 -29 -30 -39 -21 -10 10 -9 15 1 28 7 8
18 15 25 15 7 0 15 13 18 29 4 16 16 37 29 45 13 9 48 34 78 56 61 45 68 46
115 24z m-673 -341 c14 -16 33 -42 42 -60 31 -63 12 -231 -22 -190 -7 8 -16
45 -21 82 -10 85 -32 107 -100 105 -95 -3 -101 -2 -101 24 0 32 68 66 131 66
37 0 50 -5 71 -27z"/>
<path d="M7086 7465 c-73 -20 -244 -111 -303 -162 -40 -34 -53 -51 -53 -72 0
-32 23 -56 67 -72 47 -16 196 27 314 90 96 52 199 136 199 163 0 8 -9 27 -21
42 -19 24 -26 26 -87 25 -37 0 -89 -7 -116 -14z"/>
<path d="M7640 6875 c-8 -2 -55 -9 -104 -15 -100 -14 -215 -64 -243 -107 -22
-33 -8 -73 32 -92 66 -32 377 -6 465 39 49 25 110 83 110 104 0 24 -34 53 -77
65 -34 10 -145 13 -183 6z"/>
<path d="M7084 6159 c-45 -13 -60 -47 -43 -100 19 -60 50 -74 206 -99 171 -26
256 -26 328 1 58 21 74 45 60 88 -11 36 -156 99 -255 111 -101 12 -253 12
-296 -1z"/>
<path d="M4603 3995 c-60 -26 -68 -57 -68 -265 0 -177 1 -187 25 -235 18 -37
35 -55 64 -69 l39 -19 23 26 c32 38 44 110 44 270 0 154 -16 255 -45 287 -21
23 -38 24 -82 5z"/>
<path d="M5330 3897 c-32 -16 -49 -65 -49 -142 -1 -77 15 -204 34 -279 16 -63
79 -162 108 -172 68 -22 94 62 77 248 -12 135 -29 196 -72 273 -41 72 -64 89
-98 72z"/>
<path d="M3124 3553 c-24 -26 -56 -73 -70 -103 -14 -30 -37 -77 -49 -105 -57
-122 -73 -257 -35 -295 11 -11 29 -20 41 -20 63 0 202 239 236 406 17 83 17
86 -2 122 -31 57 -64 56 -121 -5z"/>
<path d="M6374 448 c-14 -4 -32 -4 -40 -1 -8 3 -14 0 -14 -7 0 -6 -4 -9 -8 -6
-4 2 -14 1 -22 -4 -9 -5 -19 -5 -27 1 -7 6 -18 7 -24 3 -7 -4 -36 -8 -65 -8
-35 -1 -58 -7 -71 -18 -11 -10 -26 -18 -34 -19 -8 0 -5 -4 6 -8 11 -5 -101 -9
-248 -9 -147 -1 -272 -4 -276 -7 -5 -3 -87 0 -182 6 -262 17 -1377 14 -1625
-4 -125 -10 -217 -12 -245 -6 -61 11 -179 11 -237 -1 -37 -8 -54 -8 -74 2 -19
10 -77 13 -242 11 -141 -2 -216 0 -216 7 0 5 -5 9 -12 7 -6 -1 -12 9 -12 23
-1 19 -8 25 -36 31 -23 5 -37 3 -42 -4 -6 -9 -10 -8 -17 2 -7 11 -23 13 -68 8
-117 -12 -121 -26 -16 -61 59 -20 79 -23 85 -13 4 6 8 7 8 2 0 -6 12 -11 28
-10 15 0 30 -3 33 -8 3 -5 57 -17 120 -28 63 -11 128 -24 144 -29 18 -6 205
-11 445 -12 280 -1 417 -5 422 -12 5 -8 11 -7 20 2 14 14 48 16 48 2 0 -5 -11
-10 -25 -10 -14 0 -25 -2 -25 -5 0 -18 41 -44 77 -50 52 -8 962 -13 1140 -5
111 5 135 9 153 25 20 18 20 20 4 32 -25 18 -9 29 24 17 15 -6 40 -7 57 -3 48
13 206 7 212 -8 4 -10 11 -10 33 2 23 12 75 15 254 15 208 0 230 2 283 22 35
13 51 24 41 26 -16 3 -16 5 -4 18 16 16 44 18 65 5 9 -6 21 -5 31 1 10 7 29 8
46 3 40 -11 64 -13 64 -6 0 4 12 8 27 9 15 1 29 5 32 10 3 4 13 8 21 9 40 6
230 58 230 63 0 8 -215 6 -246 -2z m-1338 -111 c118 -2 143 -5 158 -20 17 -16
16 -17 -9 -17 -15 0 -24 -4 -20 -10 7 -12 5 -12 -700 -12 -291 1 -540 3 -552
6 -29 6 -62 25 -45 26 6 0 12 6 12 14 0 8 8 16 18 18 17 3 881 0 1138 -5z"/>
</g>
</svg>
